<?xml version="1.0" encoding="UTF-8" standalone="no"?>
<svg
   xmlns:dc="http://purl.org/dc/elements/1.1/"
   xmlns:cc="http://creativecommons.org/ns#"
   xmlns:rdf="http://www.w3.org/1999/02/22-rdf-syntax-ns#"
   xmlns:svg="http://www.w3.org/2000/svg"
   xmlns="http://www.w3.org/2000/svg"
   xmlns:xlink="http://www.w3.org/1999/xlink"
   xmlns:sodipodi="http://sodipodi.sourceforge.net/DTD/sodipodi-0.dtd"
   xmlns:inkscape="http://www.inkscape.org/namespaces/inkscape"
   width="158.79616mm"
   height="139.68422mm"
   viewBox="0 0 158.79616 139.68422"
   version="1.1"
   id="svg8"
   inkscape:version="1.0 (4035a4fb49, 2020-05-01)"
   sodipodi:docname="drawing_NoText.svg">
  <defs
     id="defs2">
    <linearGradient
       inkscape:collect="always"
       xlink:href="#linearGradient1332"
       id="linearGradient1264"
       x1="335.8985"
       y1="67.598396"
       x2="365.00494"
       y2="82.300179"
       gradientUnits="userSpaceOnUse"
       gradientTransform="matrix(2.2756052,0,0,2.2756052,-655.83841,-15.022659)" />
    <linearGradient
       inkscape:collect="always"
       id="linearGradient1332">
      <stop
         style="stop-color:#970000;stop-opacity:1;"
         offset="0"
         id="stop1328" />
      <stop
         style="stop-color:#970000;stop-opacity:0;"
         offset="1"
         id="stop1330" />
    </linearGradient>
  </defs>
  <sodipodi:namedview
     inkscape:pagecheckerboard="false"
     inkscape:guide-bbox="true"
     showguides="true"
     id="base"
     pagecolor="#000000"
     bordercolor="#666666"
     borderopacity="1.0"
     inkscape:pageopacity="0"
     inkscape:pageshadow="2"
     inkscape:zoom="0.7"
     inkscape:cx="77.439237"
     inkscape:cy="440.85935"
     inkscape:document-units="mm"
     inkscape:current-layer="layer1"
     inkscape:document-rotation="0"
     showgrid="false"
     fit-margin-top="0"
     fit-margin-left="0"
     fit-margin-right="0"
     fit-margin-bottom="0"
     inkscape:window-width="1920"
     inkscape:window-height="1017"
     inkscape:window-x="-8"
     inkscape:window-y="-8"
     inkscape:window-maximized="1" />
  <metadata
     id="metadata5">
    <rdf:RDF>
      <cc:Work
         rdf:about="">
        <dc:format>image/svg+xml</dc:format>
        <dc:type
           rdf:resource="http://purl.org/dc/dcmitype/StillImage" />
        <dc:title></dc:title>
      </cc:Work>
    </rdf:RDF>
  </metadata>
  <g
     inkscape:label="Layer 1"
     inkscape:groupmode="layer"
     id="layer1"
     transform="translate(-29.399207,-72.611695)">
    <path
       id="path976"
       d="m 105.15863,208.23182 c -6.621348,-6.87588 -10.734002,-14.39821 -10.734002,-19.63324 0,-2.46965 -2.971599,-5.45028 -7.95604,-7.98021 -4.858326,-2.46591 -9.207235,-2.52883 -19.6846,-0.28481 -4.77117,1.02191 -9.434841,1.85799 -10.363697,1.85799 -4.298642,0 -14.606042,-5.69564 -20.157517,-11.13861 -3.40913,-3.34248 -6.863567,-8.74695 -6.863567,-10.73808 0,-0.46402 6.141085,-4.87578 13.64685,-9.80393 7.505788,-4.92814 13.925178,-9.14406 14.265337,-9.36871 0.96347,-0.63626 -0.563076,-3.41466 -2.314609,-4.21271 -0.832758,-0.37944 -1.514097,-1.03172 -1.514097,-1.44952 0,-0.41782 4.753512,-5.54389 10.563315,-11.39129 l 10.563312,-10.63162 -2.501093,-6.397 C 69.148024,99.488895 66.612385,89.934721 66.856034,87.270078 l 0.173628,-1.898992 4.816684,1.630175 c 2.64919,0.896589 6.261393,2.360758 8.027127,3.253706 1.765734,0.892925 3.255915,1.622757 3.311485,1.621801 0.05552,-0.0012 0.13062,-2.934871 0.166802,-6.519836 0.07373,-7.315434 1.099095,-12.745237 2.406703,-12.745237 1.127768,0 11.119289,3.946586 15.331637,6.055913 9.94083,4.977841 19.1092,12.827814 23.44054,20.069813 2.08961,3.493869 2.16078,3.544669 9.33073,6.660609 20.98875,9.12137 41.04542,24.76624 51.58969,40.24168 2.27002,3.33162 3.47625,6.27311 2.26564,5.52489 -0.31384,-0.19388 -0.60448,0.0699 -0.64589,0.58602 -0.114,1.42236 -0.18295,1.62061 -1.65263,4.76054 -0.75143,1.6053 -1.19761,3.35813 -0.99152,3.8952 0.20616,0.53706 0.19273,0.79444 -0.0298,0.57195 -0.22256,-0.22256 -0.79806,-0.0114 -1.27901,0.46991 -0.48094,0.48095 -1.60018,0.8787 -2.48719,0.88389 -2.56284,0.0159 -12.25316,2.20199 -17.38398,3.92335 -13.75536,4.61488 -28.99999,14.98386 -38.22178,25.99738 -2.90706,3.47189 -3.83717,4.24996 -4.23364,3.54152 -0.48872,-0.87328 0.39167,-8.28768 1.14481,-9.64146 0.19889,-0.35743 -0.70342,0.36393 -2.00505,1.603 -4.78557,4.5556 -8.86679,13.29989 -9.61472,20.60024 -0.2221,2.16687 -0.59272,3.93977 -0.82381,3.93977 -0.23109,0 -2.18131,-1.82883 -4.3338,-4.06409 z m -6.521153,-35.6735 c 1.087443,-2.15241 3.524733,-6.21648 5.416193,-9.03131 1.89148,-2.81486 3.94387,-5.99845 4.5609,-7.07467 0.61703,-1.07625 1.31287,-1.9568 1.5463,-1.9568 0.23346,0 0.61981,0.88055 0.85859,1.9568 l 0.43416,1.95677 0.85283,-2.40835 c 2.55056,-7.20254 2.19255,-13.22656 -1.05228,-17.70593 -3.30162,-4.55775 -9.97512,-7.57319 -18.321702,-8.27875 -4.749372,-0.40146 -5.352156,-1.06618 -1.647677,-1.81695 l 2.236716,-0.4533 -2.953554,-0.36069 c -9.507935,-1.16112 -19.647734,3.787 -25.674765,12.52905 -1.718151,2.49213 -3.633618,3.91036 -12.588831,9.3209 l -10.562358,6.38153 -0.0537,4.40669 c -0.0396,3.24246 -0.394795,5.07114 -1.344564,6.9217 l -1.290815,2.51503 2.849809,2.0753 c 3.775889,2.74973 8.866122,5.57269 12.1158,6.71925 2.497181,0.88107 2.869312,0.85438 7.219948,-0.51754 7.574717,-2.38861 15.679537,-3.45319 24.756994,-3.25186 8.122066,0.18022 8.652738,0.42626 3.672737,1.70329 l -2.649194,0.67933 2.979815,1.70186 c 1.63889,0.936 3.360864,2.16098 3.826589,2.72212 0.7644,0.92108 0.943467,0.73625 1.840852,-1.89988 0.546759,-1.60609 1.883836,-4.68121 2.971279,-6.83359 z M 76.397692,142.52044 c -0.350784,-0.65539 -0.637762,-1.73242 -0.637762,-2.39334 0,-1.15453 -0.189103,-1.13271 -4.816705,0.55618 -2.649191,0.96683 -4.808763,1.55751 -4.799047,1.31264 0.0091,-0.24488 2.692725,-2.4773 5.962221,-4.96089 5.708425,-4.33626 6.06053,-4.50879 8.863142,-4.34252 5.689516,0.33752 12.872416,2.60503 16.099772,5.08239 1.033192,0.79309 0.683477,0.90983 -3.750061,1.25172 -5.851697,0.45125 -11.727559,1.88504 -14.362711,3.5047 -1.910143,1.17405 -1.924751,1.17399 -2.558849,-0.0114 z m 3.182525,-4.60826 c -0.196157,-0.51101 -0.485661,-0.79996 -0.643475,-0.64215 -0.157924,0.15793 -0.108317,0.57593 0.109914,0.92911 0.593682,0.9606 0.940689,0.77398 0.533561,-0.28696 z m 6.076458,-1.63252 c -2.640796,-0.54867 -3.875879,-0.25129 -3.875879,0.93321 0,0.66516 0.57789,0.69934 3.097551,0.18318 l 3.097557,-0.63453 z m 75.900675,21.88723 c 6.28112,-2.03944 13.92793,-3.28399 18.31182,-2.98036 1.68467,0.11674 3.06285,0.023 3.06264,-0.20845 -2e-4,-0.23133 -2.12279,-3.0762 -4.71689,-6.32192 -5.81413,-7.27461 -18.10567,-19.17427 -24.60753,-23.82299 -5.0044,-3.57805 -15.21827,-9.68606 -15.58458,-9.31976 -0.11379,0.11355 1.44938,1.41261 3.4735,2.88652 8.50163,6.19064 16.13595,17.0508 17.12073,24.35495 l 0.40587,3.01042 -2.72801,-2.50779 c -2.28001,-2.09597 -5.77033,-4.4162 -6.64324,-4.4162 -0.12357,0 0.4365,1.96431 1.24474,4.36511 2.02968,6.02886 1.6494,11.48221 -1.19893,17.19213 l -2.01378,4.03695 4.22744,-2.25456 c 2.3251,-1.24002 6.66587,-3.04633 9.64622,-4.01403 z m -60.39964,-49.27945 c 0.0605,-0.91065 0.0576,-2.41601 -0.007,-3.34523 -0.0953,-1.37761 0.0585,-1.59135 0.83305,-1.15783 0.52253,0.29242 1.49635,1.32363 2.16403,2.29158 l 1.21399,1.75993 -0.26048,-4.22514 c -0.17841,-2.8925 -0.75525,-5.258921 -1.82918,-7.50285 -0.86277,-1.80278 -1.44128,-3.405147 -1.28556,-3.560866 0.42327,-0.423263 4.28449,3.453981 6.70077,6.7286 1.16859,1.583686 2.6244,4.157596 3.23512,5.719826 l 1.11043,2.84043 0.002,-2.7094 c 0.007,-5.63037 -3.81468,-12.3336 -9.95335,-17.460516 -3.151555,-2.632147 -12.560202,-8.429228 -13.680596,-8.429228 -0.879046,0 -0.0068,14.910902 1.110586,18.965735 0.5471,1.986899 1.672842,5.136539 2.501686,6.999189 1.371028,3.08115 1.733489,3.44129 4.017444,3.9918 3.81071,0.91853 4.00732,0.87534 4.12579,-0.90603 z"
       style="mix-blend-mode:normal;fill:url(#linearGradient1264);fill-opacity:1;stroke-width:0.603036;stroke-miterlimit:4;stroke-dasharray:none"
       sodipodi:nodetypes="sssssssssssscsscsscsssssssssssccsssssssssssssscsssscssscsscssssscssssscsscsssssccssssssscsssssscsscsssscssscssscsssssccsscsscc" />
  </g>
</svg>
